<?xml version="1.0" encoding="UTF-8" standalone="no"?>
<!DOCTYPE svg PUBLIC "-//W3C//DTD SVG 1.1//EN"
 "http://www.w3.org/Graphics/SVG/1.1/DTD/svg11.dtd">
<!-- Generated by graphviz version 2.38.0 (20140413.2041)
 -->
<!-- Title: %3 Pages: 1 -->
<svg width="817pt" height="1366pt"
 viewBox="0.00 0.00 816.50 1366.00" xmlns="http://www.w3.org/2000/svg" xmlns:xlink="http://www.w3.org/1999/xlink">
<g id="graph0" class="graph" transform="scale(1 1) rotate(0) translate(4 1362)">
<title>%3</title>
<polygon fill="#333333" stroke="none" points="-4,4 -4,-1362 812.5,-1362 812.5,4 -4,4"/>
<text text-anchor="middle" x="404.25" y="-1341.2" font-family="Times,serif" font-size="16.00" fill="white">Nice Tree Decomposition</text>
<!-- A0 -->
<g id="node1" class="node"><title>A0</title>
<polygon fill="#006699" stroke="white" points="342,-1332 227,-1332 227,-1296 342,-1296 342,-1332"/>
<text text-anchor="middle" x="284.5" y="-1310.3" font-family="Helvetica,sans-Serif" font-size="14.00" fill="white">root | [] | label: {}</text>
</g>
<!-- B0 -->
<g id="node2" class="node"><title>B0</title>
<polygon fill="#006699" stroke="white" points="353,-1260 216,-1260 216,-1224 353,-1224 353,-1260"/>
<text text-anchor="middle" x="284.5" y="-1238.3" font-family="Helvetica,sans-Serif" font-size="14.00" fill="white">forget | [&#39;c&#39;] | label: b</text>
</g>
<!-- A0&#45;&#45;B0 -->
<g id="edge1" class="edge"><title>A0&#45;&#45;B0</title>
<path fill="none" stroke="white" stroke-dasharray="5,2" d="M284.5,-1295.7C284.5,-1284.85 284.5,-1270.92 284.5,-1260.1"/>
</g>
<!-- C0 -->
<g id="node3" class="node"><title>C0</title>
<polygon fill="#006699" stroke="white" points="408.5,-1188 160.5,-1188 160.5,-1152 408.5,-1152 408.5,-1188"/>
<text text-anchor="middle" x="284.5" y="-1166.3" font-family="Helvetica,sans-Serif" font-size="14.00" fill="white">introduce edge | [&#39;b&#39;, &#39;c&#39;] | label: {&#39;b&#39;, &#39;c&#39;}</text>
</g>
<!-- B0&#45;&#45;C0 -->
<g id="edge2" class="edge"><title>B0&#45;&#45;C0</title>
<path fill="none" stroke="white" stroke-dasharray="5,2" d="M284.5,-1223.7C284.5,-1212.85 284.5,-1198.92 284.5,-1188.1"/>
</g>
<!-- D0 -->
<g id="node4" class="node"><title>D0</title>
<polygon fill="#006699" stroke="white" points="363.5,-1116 205.5,-1116 205.5,-1080 363.5,-1080 363.5,-1116"/>
<text text-anchor="middle" x="284.5" y="-1094.3" font-family="Helvetica,sans-Serif" font-size="14.00" fill="white">forget | [&#39;b&#39;, &#39;c&#39;] | label: g</text>
</g>
<!-- C0&#45;&#45;D0 -->
<g id="edge3" class="edge"><title>C0&#45;&#45;D0</title>
<path fill="none" stroke="white" stroke-dasharray="5,2" d="M284.5,-1151.7C284.5,-1140.85 284.5,-1126.92 284.5,-1116.1"/>
</g>
<!-- E0 -->
<g id="node5" class="node"><title>E0</title>
<polygon fill="#006699" stroke="white" points="419.5,-1044 149.5,-1044 149.5,-1008 419.5,-1008 419.5,-1044"/>
<text text-anchor="middle" x="284.5" y="-1022.3" font-family="Helvetica,sans-Serif" font-size="14.00" fill="white">introduce edge | [&#39;b&#39;, &#39;c&#39;, &#39;g&#39;] | label: {&#39;g&#39;, &#39;b&#39;}</text>
</g>
<!-- D0&#45;&#45;E0 -->
<g id="edge4" class="edge"><title>D0&#45;&#45;E0</title>
<path fill="none" stroke="white" stroke-dasharray="5,2" d="M284.5,-1079.7C284.5,-1068.85 284.5,-1054.92 284.5,-1044.1"/>
</g>
<!-- F0 -->
<g id="node6" class="node"><title>F0</title>
<polygon fill="#006699" stroke="white" points="368,-972 201,-972 201,-936 368,-936 368,-972"/>
<text text-anchor="middle" x="284.5" y="-950.3" font-family="Helvetica,sans-Serif" font-size="14.00" fill="white">join | [&#39;b&#39;, &#39;c&#39;, &#39;g&#39;] | label: {}</text>
</g>
<!-- E0&#45;&#45;F0 -->
<g id="edge5" class="edge"><title>E0&#45;&#45;F0</title>
<path fill="none" stroke="white" stroke-dasharray="5,2" d="M284.5,-1007.7C284.5,-996.846 284.5,-982.917 284.5,-972.104"/>
</g>
<!-- G0 -->
<g id="node7" class="node"><title>G0</title>
<polygon fill="#006699" stroke="white" points="274.5,-900 34.5,-900 34.5,-864 274.5,-864 274.5,-900"/>
<text text-anchor="middle" x="154.5" y="-878.3" font-family="Helvetica,sans-Serif" font-size="14.00" fill="white">introduce vertex | [&#39;b&#39;, &#39;c&#39;, &#39;g&#39;] | label: c</text>
</g>
<!-- F0&#45;&#45;G0 -->
<g id="edge6" class="edge"><title>F0&#45;&#45;G0</title>
<path fill="none" stroke="white" stroke-dasharray="5,2" d="M252.698,-935.876C232.553,-925.029 206.592,-911.05 186.424,-900.19"/>
</g>
<!-- H0 -->
<g id="node8" class="node"><title>H0</title>
<polygon fill="#006699" stroke="white" points="536,-900 295,-900 295,-864 536,-864 536,-900"/>
<text text-anchor="middle" x="415.5" y="-878.3" font-family="Helvetica,sans-Serif" font-size="14.00" fill="white">introduce vertex | [&#39;b&#39;, &#39;c&#39;, &#39;g&#39;] | label: b</text>
</g>
<!-- F0&#45;&#45;H0 -->
<g id="edge7" class="edge"><title>F0&#45;&#45;H0</title>
<path fill="none" stroke="white" stroke-dasharray="5,2" d="M316.546,-935.876C336.846,-925.029 363.007,-911.05 383.331,-900.19"/>
</g>
<!-- I0 -->
<g id="node9" class="node"><title>I0</title>
<polygon fill="#006699" stroke="white" points="230,-828 71,-828 71,-792 230,-792 230,-828"/>
<text text-anchor="middle" x="150.5" y="-806.3" font-family="Helvetica,sans-Serif" font-size="14.00" fill="white">forget | [&#39;b&#39;, &#39;g&#39;] | label: a</text>
</g>
<!-- G0&#45;&#45;I0 -->
<g id="edge8" class="edge"><title>G0&#45;&#45;I0</title>
<path fill="none" stroke="white" stroke-dasharray="5,2" d="M153.511,-863.697C152.891,-852.846 152.095,-838.917 151.477,-828.104"/>
</g>
<!-- P0 -->
<g id="node16" class="node"><title>P0</title>
<polygon fill="#006699" stroke="white" points="501.5,-828 343.5,-828 343.5,-792 501.5,-792 501.5,-828"/>
<text text-anchor="middle" x="422.5" y="-806.3" font-family="Helvetica,sans-Serif" font-size="14.00" fill="white">forget | [&#39;c&#39;, &#39;g&#39;] | label: e</text>
</g>
<!-- H0&#45;&#45;P0 -->
<g id="edge15" class="edge"><title>H0&#45;&#45;P0</title>
<path fill="none" stroke="white" stroke-dasharray="5,2" d="M417.23,-863.697C418.315,-852.846 419.708,-838.917 420.79,-828.104"/>
</g>
<!-- J0 -->
<g id="node10" class="node"><title>J0</title>
<polygon fill="#006699" stroke="white" points="271,-756 0,-756 0,-720 271,-720 271,-756"/>
<text text-anchor="middle" x="135.5" y="-734.3" font-family="Helvetica,sans-Serif" font-size="14.00" fill="white">introduce edge | [&#39;a&#39;, &#39;b&#39;, &#39;g&#39;] | label: {&#39;g&#39;, &#39;a&#39;}</text>
</g>
<!-- I0&#45;&#45;J0 -->
<g id="edge9" class="edge"><title>I0&#45;&#45;J0</title>
<path fill="none" stroke="white" stroke-dasharray="5,2" d="M146.792,-791.697C144.467,-780.846 141.482,-766.917 139.165,-756.104"/>
</g>
<!-- K0 -->
<g id="node11" class="node"><title>K0</title>
<polygon fill="#006699" stroke="white" points="271,-684 0,-684 0,-648 271,-648 271,-684"/>
<text text-anchor="middle" x="135.5" y="-662.3" font-family="Helvetica,sans-Serif" font-size="14.00" fill="white">introduce edge | [&#39;a&#39;, &#39;b&#39;, &#39;g&#39;] | label: {&#39;b&#39;, &#39;a&#39;}</text>
</g>
<!-- J0&#45;&#45;K0 -->
<g id="edge10" class="edge"><title>J0&#45;&#45;K0</title>
<path fill="none" stroke="white" stroke-dasharray="5,2" d="M135.5,-719.697C135.5,-708.846 135.5,-694.917 135.5,-684.104"/>
</g>
<!-- L0 -->
<g id="node12" class="node"><title>L0</title>
<polygon fill="#006699" stroke="white" points="256.5,-612 14.5,-612 14.5,-576 256.5,-576 256.5,-612"/>
<text text-anchor="middle" x="135.5" y="-590.3" font-family="Helvetica,sans-Serif" font-size="14.00" fill="white">introduce vertex | [&#39;a&#39;, &#39;b&#39;, &#39;g&#39;] | label: a</text>
</g>
<!-- K0&#45;&#45;L0 -->
<g id="edge11" class="edge"><title>K0&#45;&#45;L0</title>
<path fill="none" stroke="white" stroke-dasharray="5,2" d="M135.5,-647.697C135.5,-636.846 135.5,-622.917 135.5,-612.104"/>
</g>
<!-- M0 -->
<g id="node13" class="node"><title>M0</title>
<polygon fill="#006699" stroke="white" points="246,-540 25,-540 25,-504 246,-504 246,-540"/>
<text text-anchor="middle" x="135.5" y="-518.3" font-family="Helvetica,sans-Serif" font-size="14.00" fill="white">introduce vertex | [&#39;b&#39;, &#39;g&#39;] | label: b</text>
</g>
<!-- L0&#45;&#45;M0 -->
<g id="edge12" class="edge"><title>L0&#45;&#45;M0</title>
<path fill="none" stroke="white" stroke-dasharray="5,2" d="M135.5,-575.697C135.5,-564.846 135.5,-550.917 135.5,-540.104"/>
</g>
<!-- N0 -->
<g id="node14" class="node"><title>N0</title>
<polygon fill="#006699" stroke="white" points="235.5,-468 35.5,-468 35.5,-432 235.5,-432 235.5,-468"/>
<text text-anchor="middle" x="135.5" y="-446.3" font-family="Helvetica,sans-Serif" font-size="14.00" fill="white">introduce vertex | [&#39;g&#39;] | label: g</text>
</g>
<!-- M0&#45;&#45;N0 -->
<g id="edge13" class="edge"><title>M0&#45;&#45;N0</title>
<path fill="none" stroke="white" stroke-dasharray="5,2" d="M135.5,-503.697C135.5,-492.846 135.5,-478.917 135.5,-468.104"/>
</g>
<!-- O0 -->
<g id="node15" class="node"><title>O0</title>
<polygon fill="#006699" stroke="white" points="192,-396 79,-396 79,-360 192,-360 192,-396"/>
<text text-anchor="middle" x="135.5" y="-374.3" font-family="Helvetica,sans-Serif" font-size="14.00" fill="white">leaf | [] | label: {}</text>
</g>
<!-- N0&#45;&#45;O0 -->
<g id="edge14" class="edge"><title>N0&#45;&#45;O0</title>
<path fill="none" stroke="white" stroke-dasharray="5,2" d="M135.5,-431.697C135.5,-420.846 135.5,-406.917 135.5,-396.104"/>
</g>
<!-- Q0 -->
<g id="node17" class="node"><title>Q0</title>
<polygon fill="#006699" stroke="white" points="559.5,-756 289.5,-756 289.5,-720 559.5,-720 559.5,-756"/>
<text text-anchor="middle" x="424.5" y="-734.3" font-family="Helvetica,sans-Serif" font-size="14.00" fill="white">introduce edge | [&#39;e&#39;, &#39;c&#39;, &#39;g&#39;] | label: {&#39;e&#39;, &#39;g&#39;}</text>
</g>
<!-- P0&#45;&#45;Q0 -->
<g id="edge16" class="edge"><title>P0&#45;&#45;Q0</title>
<path fill="none" stroke="white" stroke-dasharray="5,2" d="M422.994,-791.697C423.304,-780.846 423.702,-766.917 424.011,-756.104"/>
</g>
<!-- R0 -->
<g id="node18" class="node"><title>R0</title>
<polygon fill="#006699" stroke="white" points="559,-684 290,-684 290,-648 559,-648 559,-684"/>
<text text-anchor="middle" x="424.5" y="-662.3" font-family="Helvetica,sans-Serif" font-size="14.00" fill="white">introduce edge | [&#39;e&#39;, &#39;c&#39;, &#39;g&#39;] | label: {&#39;e&#39;, &#39;c&#39;}</text>
</g>
<!-- Q0&#45;&#45;R0 -->
<g id="edge17" class="edge"><title>Q0&#45;&#45;R0</title>
<path fill="none" stroke="white" stroke-dasharray="5,2" d="M424.5,-719.697C424.5,-708.846 424.5,-694.917 424.5,-684.104"/>
</g>
<!-- S0 -->
<g id="node19" class="node"><title>S0</title>
<polygon fill="#006699" stroke="white" points="508,-612 341,-612 341,-576 508,-576 508,-612"/>
<text text-anchor="middle" x="424.5" y="-590.3" font-family="Helvetica,sans-Serif" font-size="14.00" fill="white">join | [&#39;e&#39;, &#39;c&#39;, &#39;g&#39;] | label: {}</text>
</g>
<!-- R0&#45;&#45;S0 -->
<g id="edge18" class="edge"><title>R0&#45;&#45;S0</title>
<path fill="none" stroke="white" stroke-dasharray="5,2" d="M424.5,-647.697C424.5,-636.846 424.5,-622.917 424.5,-612.104"/>
</g>
<!-- T0 -->
<g id="node20" class="node"><title>T0</title>
<polygon fill="#006699" stroke="white" points="524.5,-540 284.5,-540 284.5,-504 524.5,-504 524.5,-540"/>
<text text-anchor="middle" x="404.5" y="-518.3" font-family="Helvetica,sans-Serif" font-size="14.00" fill="white">introduce vertex | [&#39;e&#39;, &#39;c&#39;, &#39;g&#39;] | label: c</text>
</g>
<!-- S0&#45;&#45;T0 -->
<g id="edge19" class="edge"><title>S0&#45;&#45;T0</title>
<path fill="none" stroke="white" stroke-dasharray="5,2" d="M419.556,-575.697C416.456,-564.846 412.476,-550.917 409.387,-540.104"/>
</g>
<!-- U0 -->
<g id="node21" class="node"><title>U0</title>
<polygon fill="#006699" stroke="white" points="786,-540 545,-540 545,-504 786,-504 786,-540"/>
<text text-anchor="middle" x="665.5" y="-518.3" font-family="Helvetica,sans-Serif" font-size="14.00" fill="white">introduce vertex | [&#39;e&#39;, &#39;c&#39;, &#39;g&#39;] | label: g</text>
</g>
<!-- S0&#45;&#45;U0 -->
<g id="edge20" class="edge"><title>S0&#45;&#45;U0</title>
<path fill="none" stroke="white" stroke-dasharray="5,2" d="M483.147,-575.966C520.627,-565.079 569.059,-551.012 606.59,-540.111"/>
</g>
<!-- V0 -->
<g id="node22" class="node"><title>V0</title>
<polygon fill="#006699" stroke="white" points="469,-468 314,-468 314,-432 469,-432 469,-468"/>
<text text-anchor="middle" x="391.5" y="-446.3" font-family="Helvetica,sans-Serif" font-size="14.00" fill="white">forget | [&#39;e&#39;, &#39;g&#39;] | label: f</text>
</g>
<!-- T0&#45;&#45;V0 -->
<g id="edge21" class="edge"><title>T0&#45;&#45;V0</title>
<path fill="none" stroke="white" stroke-dasharray="5,2" d="M401.287,-503.697C399.271,-492.846 396.685,-478.917 394.677,-468.104"/>
</g>
<!-- E1 -->
<g id="node29" class="node"><title>E1</title>
<polygon fill="#006699" stroke="white" points="750.5,-468 592.5,-468 592.5,-432 750.5,-432 750.5,-468"/>
<text text-anchor="middle" x="671.5" y="-446.3" font-family="Helvetica,sans-Serif" font-size="14.00" fill="white">forget | [&#39;e&#39;, &#39;c&#39;] | label: d</text>
</g>
<!-- U0&#45;&#45;E1 -->
<g id="edge28" class="edge"><title>U0&#45;&#45;E1</title>
<path fill="none" stroke="white" stroke-dasharray="5,2" d="M666.983,-503.697C667.913,-492.846 669.107,-478.917 670.034,-468.104"/>
</g>
<!-- W0 -->
<g id="node23" class="node"><title>W0</title>
<polygon fill="#006699" stroke="white" points="520,-396 257,-396 257,-360 520,-360 520,-396"/>
<text text-anchor="middle" x="388.5" y="-374.3" font-family="Helvetica,sans-Serif" font-size="14.00" fill="white">introduce edge | [&#39;e&#39;, &#39;f&#39;, &#39;g&#39;] | label: {&#39;f&#39;, &#39;e&#39;}</text>
</g>
<!-- V0&#45;&#45;W0 -->
<g id="edge22" class="edge"><title>V0&#45;&#45;W0</title>
<path fill="none" stroke="white" stroke-dasharray="5,2" d="M390.758,-431.697C390.293,-420.846 389.696,-406.917 389.233,-396.104"/>
</g>
<!-- X0 -->
<g id="node24" class="node"><title>X0</title>
<polygon fill="#006699" stroke="white" points="520,-324 257,-324 257,-288 520,-288 520,-324"/>
<text text-anchor="middle" x="388.5" y="-302.3" font-family="Helvetica,sans-Serif" font-size="14.00" fill="white">introduce edge | [&#39;e&#39;, &#39;f&#39;, &#39;g&#39;] | label: {&#39;f&#39;, &#39;g&#39;}</text>
</g>
<!-- W0&#45;&#45;X0 -->
<g id="edge23" class="edge"><title>W0&#45;&#45;X0</title>
<path fill="none" stroke="white" stroke-dasharray="5,2" d="M388.5,-359.697C388.5,-348.846 388.5,-334.917 388.5,-324.104"/>
</g>
<!-- A1 -->
<g id="node25" class="node"><title>A1</title>
<polygon fill="#006699" stroke="white" points="507.5,-252 269.5,-252 269.5,-216 507.5,-216 507.5,-252"/>
<text text-anchor="middle" x="388.5" y="-230.3" font-family="Helvetica,sans-Serif" font-size="14.00" fill="white">introduce vertex | [&#39;e&#39;, &#39;f&#39;, &#39;g&#39;] | label: e</text>
</g>
<!-- X0&#45;&#45;A1 -->
<g id="edge24" class="edge"><title>X0&#45;&#45;A1</title>
<path fill="none" stroke="white" stroke-dasharray="5,2" d="M388.5,-287.697C388.5,-276.846 388.5,-262.917 388.5,-252.104"/>
</g>
<!-- B1 -->
<g id="node26" class="node"><title>B1</title>
<polygon fill="#006699" stroke="white" points="495,-180 282,-180 282,-144 495,-144 495,-180"/>
<text text-anchor="middle" x="388.5" y="-158.3" font-family="Helvetica,sans-Serif" font-size="14.00" fill="white">introduce vertex | [&#39;f&#39;, &#39;g&#39;] | label: f</text>
</g>
<!-- A1&#45;&#45;B1 -->
<g id="edge25" class="edge"><title>A1&#45;&#45;B1</title>
<path fill="none" stroke="white" stroke-dasharray="5,2" d="M388.5,-215.697C388.5,-204.846 388.5,-190.917 388.5,-180.104"/>
</g>
<!-- C1 -->
<g id="node27" class="node"><title>C1</title>
<polygon fill="#006699" stroke="white" points="488.5,-108 288.5,-108 288.5,-72 488.5,-72 488.5,-108"/>
<text text-anchor="middle" x="388.5" y="-86.3" font-family="Helvetica,sans-Serif" font-size="14.00" fill="white">introduce vertex | [&#39;g&#39;] | label: g</text>
</g>
<!-- B1&#45;&#45;C1 -->
<g id="edge26" class="edge"><title>B1&#45;&#45;C1</title>
<path fill="none" stroke="white" stroke-dasharray="5,2" d="M388.5,-143.697C388.5,-132.846 388.5,-118.917 388.5,-108.104"/>
</g>
<!-- D1 -->
<g id="node28" class="node"><title>D1</title>
<polygon fill="#006699" stroke="white" points="445,-36 332,-36 332,-0 445,-0 445,-36"/>
<text text-anchor="middle" x="388.5" y="-14.3" font-family="Helvetica,sans-Serif" font-size="14.00" fill="white">leaf | [] | label: {}</text>
</g>
<!-- C1&#45;&#45;D1 -->
<g id="edge27" class="edge"><title>C1&#45;&#45;D1</title>
<path fill="none" stroke="white" stroke-dasharray="5,2" d="M388.5,-71.6966C388.5,-60.8463 388.5,-46.9167 388.5,-36.1043"/>
</g>
<!-- F1 -->
<g id="node30" class="node"><title>F1</title>
<polygon fill="#006699" stroke="white" points="808.5,-396 538.5,-396 538.5,-360 808.5,-360 808.5,-396"/>
<text text-anchor="middle" x="673.5" y="-374.3" font-family="Helvetica,sans-Serif" font-size="14.00" fill="white">introduce edge | [&#39;e&#39;, &#39;c&#39;, &#39;d&#39;] | label: {&#39;e&#39;, &#39;d&#39;}</text>
</g>
<!-- E1&#45;&#45;F1 -->
<g id="edge29" class="edge"><title>E1&#45;&#45;F1</title>
<path fill="none" stroke="white" stroke-dasharray="5,2" d="M671.994,-431.697C672.304,-420.846 672.702,-406.917 673.011,-396.104"/>
</g>
<!-- G1 -->
<g id="node31" class="node"><title>G1</title>
<polygon fill="#006699" stroke="white" points="808,-324 539,-324 539,-288 808,-288 808,-324"/>
<text text-anchor="middle" x="673.5" y="-302.3" font-family="Helvetica,sans-Serif" font-size="14.00" fill="white">introduce edge | [&#39;e&#39;, &#39;c&#39;, &#39;d&#39;] | label: {&#39;c&#39;, &#39;d&#39;}</text>
</g>
<!-- F1&#45;&#45;G1 -->
<g id="edge30" class="edge"><title>F1&#45;&#45;G1</title>
<path fill="none" stroke="white" stroke-dasharray="5,2" d="M673.5,-359.697C673.5,-348.846 673.5,-334.917 673.5,-324.104"/>
</g>
<!-- H1 -->
<g id="node32" class="node"><title>H1</title>
<polygon fill="#006699" stroke="white" points="794,-252 553,-252 553,-216 794,-216 794,-252"/>
<text text-anchor="middle" x="673.5" y="-230.3" font-family="Helvetica,sans-Serif" font-size="14.00" fill="white">introduce vertex | [&#39;e&#39;, &#39;c&#39;, &#39;d&#39;] | label: e</text>
</g>
<!-- G1&#45;&#45;H1 -->
<g id="edge31" class="edge"><title>G1&#45;&#45;H1</title>
<path fill="none" stroke="white" stroke-dasharray="5,2" d="M673.5,-287.697C673.5,-276.846 673.5,-262.917 673.5,-252.104"/>
</g>
<!-- I1 -->
<g id="node33" class="node"><title>I1</title>
<polygon fill="#006699" stroke="white" points="783,-180 564,-180 564,-144 783,-144 783,-180"/>
<text text-anchor="middle" x="673.5" y="-158.3" font-family="Helvetica,sans-Serif" font-size="14.00" fill="white">introduce vertex | [&#39;c&#39;, &#39;d&#39;] | label: c</text>
</g>
<!-- H1&#45;&#45;I1 -->
<g id="edge32" class="edge"><title>H1&#45;&#45;I1</title>
<path fill="none" stroke="white" stroke-dasharray="5,2" d="M673.5,-215.697C673.5,-204.846 673.5,-190.917 673.5,-180.104"/>
</g>
<!-- J1 -->
<g id="node34" class="node"><title>J1</title>
<polygon fill="#006699" stroke="white" points="773.5,-108 573.5,-108 573.5,-72 773.5,-72 773.5,-108"/>
<text text-anchor="middle" x="673.5" y="-86.3" font-family="Helvetica,sans-Serif" font-size="14.00" fill="white">introduce vertex | [&#39;d&#39;] | label: d</text>
</g>
<!-- I1&#45;&#45;J1 -->
<g id="edge33" class="edge"><title>I1&#45;&#45;J1</title>
<path fill="none" stroke="white" stroke-dasharray="5,2" d="M673.5,-143.697C673.5,-132.846 673.5,-118.917 673.5,-108.104"/>
</g>
<!-- K1 -->
<g id="node35" class="node"><title>K1</title>
<polygon fill="#006699" stroke="white" points="730,-36 617,-36 617,-0 730,-0 730,-36"/>
<text text-anchor="middle" x="673.5" y="-14.3" font-family="Helvetica,sans-Serif" font-size="14.00" fill="white">leaf | [] | label: {}</text>
</g>
<!-- J1&#45;&#45;K1 -->
<g id="edge34" class="edge"><title>J1&#45;&#45;K1</title>
<path fill="none" stroke="white" stroke-dasharray="5,2" d="M673.5,-71.6966C673.5,-60.8463 673.5,-46.9167 673.5,-36.1043"/>
</g>
</g>
</svg>
